{"title":"Die Bitteren Tranen Der Petra von Kant (The Bitter Tears of Petr","uid":10398986,"size":2144641020,"categoryP":"video","categoryS":"movies","magnet":"?xt=urn:btih:e2b7acb00c5a7b0f4aa7505fb687d683d5f32bf8&amp;dn=Die+Bitteren+Tranen+Der+Petra+von+Kant+%28The+Bitter+Tears+of+Petr&amp;tr=udp%3A%2F%2Ftracker.openbittorrent.com%3A80&amp;tr=udp%3A%2F%2Fopen.demonii.com%3A1337&amp;tr=udp%3A%2F%2Ftracker.coppersurfer.tk%3A6969&amp;tr=udp%3A%2F%2Fexodus.desync.com%3A6969","seeders":11,"leechers":1,"uploader":"pfmm","files":3,"time":1403323234,"description":"Also Known As: The Bitter Tears of Petra von Kant\n124 min - Drama - 1972\n\nDirector: Rainer Werner Fassbinder\nWriters: Rainer Werner Fassbinder (play), Rainer Werner Fassbinder (screenplay)\nStars: Margit Carstensen, Hanna Schygulla and Katrin Schaake\nGreek subs included\n\nPetra von Kant is a successful fashion designer -- arrogant, caustic, and self-satisfied. She mistreats Marlene (her secretary, maid, and co-designer). Enter Karin, a 23-year-old beauty who wants to be a model. Petra falls in love with Karin and invites her to move in. \n\nScreen: http://img822.imageshack.us/img822/796/vlcsnap2012110623h04m36.jpg\n\nGeneral\nComplete name : Die.Bitteren.Tranen.Der.Petra.von.Kant.1972.DvDRip.xvid.VisualArt.mkv\nFormat : Matroska\nFile size : 1.99 GiB\nDuration : 2h 4mn\nOverall bit rate : 2 299 Kbps\n\nVideo\nID : 1\nFormat : MPEG-4 Visual\nFormat profile : Simple@L3\nFormat settings, BVOP : No\nFormat settings, QPel : No\nFormat settings, GMC : No warppoints\nFormat settings, Matrix : Default (H.263)\nCodec ID : XVID\nCodec ID/Hint : XviD\nDuration : 2h 4mn\nBit rate : 2 061 Kbps\nWidth : 688 pixels\nHeight : 524 pixels\nDisplay aspect ratio : 4:3\nFrame rate : 24.000 fps\nColor space : YUV\nChroma subsampling : 4:2:0\nBit depth : 8 bits\nScan type : Progressive\nCompression mode : Lossy\nBits/(Pixel*Frame) : 0.238\nStream size : 1.79 GiB (90%)\nLanguage : English\n\nAudio\nID : 2\nFormat : AC-3\nFormat/Info : Audio Coding 3\nMode extension : CM (complete main)\nCodec ID : A_AC3\nDuration : 2h 4mn\nBit rate mode : Constant\nBit rate : 192 Kbps\nChannel(s) : 2 channels\nChannel positions : Front: L R\nSampling rate : 48.0 KHz\nBit depth : 16 bits\nCompression mode : Lossy\nStream size : 170 MiB (8%)\nLanguage : English","torrent":{"xt":"urn:btih:e2b7acb00c5a7b0f4aa7505fb687d683d5f32bf8","amp;dn":"Die+Bitteren+Tranen+Der+Petra+von+Kant+%28The+Bitter+Tears+of+Petr","amp;tr":["udp%3A%2F%2Ftracker.openbittorrent.com%3A80","udp%3A%2F%2Fopen.demonii.com%3A1337","udp%3A%2F%2Ftracker.coppersurfer.tk%3A6969","udp%3A%2F%2Fexodus.desync.com%3A6969"],"infoHash":"e2b7acb00c5a7b0f4aa7505fb687d683d5f32bf8","infoHashBuffer":{"type":"Buffer","data":[226,183,172,176,12,90,123,15,74,167,80,95,182,135,214,131,213,243,43,248]},"announce":[],"urlList":[]}}